<svg width="219" height="31" viewBox="0 0 219 31" fill="none" xmlns="http://www.w3.org/2000/svg">
<path d="M205.472 30V4.04001H218.792V5.64001H207.312V15.08H217.792V16.64H207.312V30H205.472Z" fill="black"/>
<path d="M186.253 30V4.04001H188.093V28.32H200.013V30H186.253Z" fill="black"/>
<path d="M166.37 30V4.04001H178.49V5.64001H168.21V15.08H177.49V16.64H168.21V28.32H178.89V30H166.37Z" fill="black"/>
<path d="M154.922 30V16.88H136.882V30H135.042V4.04001H136.882V15.24H154.922V4.04001H156.762V30H154.922Z" fill="black"/>
<path d="M126.007 3.91999C124.061 3.09332 122.127 2.67998 120.207 2.67998C116.314 2.67998 114.367 4.11998 114.367 6.99998C114.367 8.25332 114.807 9.42665 115.687 10.52C116.567 11.5867 117.634 12.5467 118.887 13.4C120.141 14.2267 121.394 15.08 122.647 15.96C123.901 16.84 124.967 17.8933 125.847 19.12C126.727 20.3467 127.167 21.68 127.167 23.12C127.167 25.5467 126.354 27.3867 124.727 28.64C123.101 29.8667 120.847 30.48 117.967 30.48C115.114 30.48 112.674 29.7467 110.647 28.28L111.607 26.84C113.527 28.0933 115.634 28.72 117.927 28.72C120.221 28.72 121.981 28.2667 123.207 27.36C124.434 26.4267 125.047 25.0933 125.047 23.36C125.047 22.16 124.607 21.0267 123.727 19.96C122.847 18.8667 121.781 17.8933 120.527 17.04C119.274 16.16 118.021 15.2667 116.767 14.36C115.514 13.4533 114.447 12.3733 113.567 11.12C112.687 9.86665 112.247 8.51998 112.247 7.07999C112.247 5.18665 112.941 3.69332 114.327 2.59998C115.741 1.47998 117.634 0.919983 120.007 0.919983C122.407 0.919983 124.634 1.39998 126.687 2.35998L126.007 3.91999Z" fill="black"/>
<path d="M93.2844 30V4.04001H105.404V5.64001H95.1244V15.08H104.404V16.64H95.1244V28.32H105.804V30H93.2844Z" fill="black"/>
<path d="M72.0341 28.64C75.4474 28.64 78.1808 27.72 80.2341 25.88C82.3141 24.04 83.3541 21.2667 83.3541 17.56C83.3541 13.8533 82.1808 10.9067 79.8341 8.71999C77.5141 6.53332 74.6474 5.43999 71.2341 5.43999C68.8074 5.43999 66.9408 5.49332 65.6341 5.59999V28.36C67.2341 28.5467 69.3674 28.64 72.0341 28.64ZM71.2341 3.79999C75.2341 3.79999 78.5674 5.03999 81.2341 7.51999C83.9274 9.97332 85.2741 13.32 85.2741 17.56C85.2741 21.8 84.0341 24.9867 81.5541 27.12C79.1008 29.2533 75.9274 30.32 72.0341 30.32C69.3408 30.32 66.5674 30.1867 63.7141 29.92V4.03999C65.8474 3.87999 68.3541 3.79999 71.2341 3.79999Z" fill="black"/>
<path d="M42.6159 30.4C38.9092 30.4 35.8026 29.1067 33.2959 26.52C30.7892 23.9333 29.5359 20.7733 29.5359 17.04C29.5359 13.28 30.7892 10.1067 33.2959 7.51998C35.8026 4.93332 38.9092 3.63998 42.6159 3.63998C46.3226 3.63998 49.4292 4.93332 51.9359 7.51998C54.4426 10.1067 55.6959 13.28 55.6959 17.04C55.6959 20.7733 54.4426 23.9333 51.9359 26.52C49.4292 29.1067 46.3226 30.4 42.6159 30.4ZM42.6159 5.27998C39.4159 5.27998 36.7492 6.41332 34.6159 8.67998C32.5092 10.9467 31.4559 13.7333 31.4559 17.04C31.4559 20.32 32.5092 23.0933 34.6159 25.36C36.7492 27.6 39.4159 28.72 42.6159 28.72C45.8426 28.72 48.5092 27.6 50.6159 25.36C52.7226 23.0933 53.7759 20.32 53.7759 17.04C53.7759 13.7333 52.7226 10.9467 50.6159 8.67998C48.5092 6.41332 45.8426 5.27998 42.6159 5.27998Z" fill="black"/>
<path d="M15.8 30.48C11.64 30.48 8.06664 29.0667 5.07998 26.24C2.09331 23.3867 0.599976 19.88 0.599976 15.72C0.599976 11.5333 1.90664 8.02665 4.51998 5.19999C7.13331 2.34665 10.48 0.919983 14.56 0.919983C17.76 0.919983 21 1.45332 24.28 2.51998L23.76 4.11998C20.56 3.15998 17.4933 2.67998 14.56 2.67998C11.0666 2.67998 8.21331 3.93332 5.99998 6.43998C3.78664 8.94665 2.67998 12.0133 2.67998 15.64C2.67998 19.2667 3.95998 22.36 6.51998 24.92C9.10664 27.4533 12.2 28.72 15.8 28.72C18.9466 28.72 21.6666 28.24 23.96 27.28L24.56 28.64C23.5466 29.2267 22.2133 29.68 20.56 30C18.9333 30.32 17.3466 30.48 15.8 30.48Z" fill="black"/>
</svg>
